<svg id="my-svg" width="100%" xmlns="http://www.w3.org/2000/svg" xmlns:xlink="http://www.w3.org/1999/xlink" class="flowchart" style="max-width: 1735.55px; background-color: white;" viewBox="0 0 1735.546875 1052" role="graphics-document document" aria-roledescription="flowchart-v2"><style>#my-svg{font-family:"trebuchet ms",verdana,arial,sans-serif;font-size:16px;fill:#333;}@keyframes edge-animation-frame{from{stroke-dashoffset:0;}}@keyframes dash{to{stroke-dashoffset:0;}}#my-svg .edge-animation-slow{stroke-dasharray:9,5!important;stroke-dashoffset:900;animation:dash 50s linear infinite;stroke-linecap:round;}#my-svg .edge-animation-fast{stroke-dasharray:9,5!important;stroke-dashoffset:900;animation:dash 20s linear infinite;stroke-linecap:round;}#my-svg .error-icon{fill:#552222;}#my-svg .error-text{fill:#552222;stroke:#552222;}#my-svg .edge-thickness-normal{stroke-width:1px;}#my-svg .edge-thickness-thick{stroke-width:3.5px;}#my-svg .edge-pattern-solid{stroke-dasharray:0;}#my-svg .edge-thickness-invisible{stroke-width:0;fill:none;}#my-svg .edge-pattern-dashed{stroke-dasharray:3;}#my-svg .edge-pattern-dotted{stroke-dasharray:2;}#my-svg .marker{fill:#333333;stroke:#333333;}#my-svg .marker.cross{stroke:#333333;}#my-svg svg{font-family:"trebuchet ms",verdana,arial,sans-serif;font-size:16px;}#my-svg p{margin:0;}#my-svg .label{font-family:"trebuchet ms",verdana,arial,sans-serif;color:#333;}#my-svg .cluster-label text{fill:#333;}#my-svg .cluster-label span{color:#333;}#my-svg .cluster-label span p{background-color:transparent;}#my-svg .label text,#my-svg span{fill:#333;color:#333;}#my-svg .node rect,#my-svg .node circle,#my-svg .node ellipse,#my-svg .node polygon,#my-svg .node path{fill:#ECECFF;stroke:#9370DB;stroke-width:1px;}#my-svg .rough-node .label text,#my-svg .node .label text,#my-svg .image-shape .label,#my-svg .icon-shape .label{text-anchor:middle;}#my-svg .node .katex path{fill:#000;stroke:#000;stroke-width:1px;}#my-svg .rough-node .label,#my-svg .node .label,#my-svg .image-shape .label,#my-svg .icon-shape .label{text-align:center;}#my-svg .node.clickable{cursor:pointer;}#my-svg .root .anchor path{fill:#333333!important;stroke-width:0;stroke:#333333;}#my-svg .arrowheadPath{fill:#333333;}#my-svg .edgePath .path{stroke:#333333;stroke-width:1px;}#my-svg .flowchart-link{stroke:#333333;fill:none;}#my-svg .edgeLabel{background-color:rgba(232,232,232, 0.8);text-align:center;}#my-svg .edgeLabel p{background-color:rgba(232,232,232, 0.8);}#my-svg .edgeLabel rect{opacity:0.5;background-color:rgba(232,232,232, 0.8);fill:rgba(232,232,232, 0.8);}#my-svg .labelBkg{background-color:rgba(232, 232, 232, 0.5);}#my-svg .cluster rect{fill:#ffffde;stroke:#aaaa33;stroke-width:1px;}#my-svg .cluster text{fill:#333;}#my-svg .cluster span{color:#333;}#my-svg div.mermaidTooltip{position:absolute;text-align:center;max-width:200px;padding:2px;font-family:"trebuchet ms",verdana,arial,sans-serif;font-size:12px;background:hsl(80, 100%, 96.2745098039%);border:1px solid #aaaa33;border-radius:2px;pointer-events:none;z-index:100;}#my-svg .flowchartTitleText{text-anchor:middle;font-size:18px;fill:#333;}#my-svg rect.text{fill:none;stroke-width:0;}#my-svg .icon-shape,#my-svg .image-shape{background-color:rgba(232,232,232, 0.8);text-align:center;}#my-svg .icon-shape p,#my-svg .image-shape p{background-color:rgba(232,232,232, 0.8);padding:2px;}#my-svg .icon-shape .label rect,#my-svg .image-shape .label rect{opacity:0.5;background-color:rgba(232,232,232, 0.8);fill:rgba(232,232,232, 0.8);}#my-svg .label-icon{display:inline-block;height:1em;overflow:visible;vertical-align:-0.125em;}#my-svg .node .label-icon path{fill:currentColor;stroke:revert;stroke-width:revert;}#my-svg .node .neo-node{stroke:#9370DB;}#my-svg [data-look="neo"].node rect,#my-svg [data-look="neo"].cluster rect,#my-svg [data-look="neo"].node polygon{stroke:#9370DB;filter:drop-shadow(1px 2px 2px rgba(185, 185, 185, 1));}#my-svg [data-look="neo"].node path{stroke:#9370DB;stroke-width:1px;}#my-svg [data-look="neo"].node .outer-path{filter:drop-shadow(1px 2px 2px rgba(185, 185, 185, 1));}#my-svg [data-look="neo"].node .neo-line path{stroke:#9370DB;filter:none;}#my-svg [data-look="neo"].node circle{stroke:#9370DB;filter:drop-shadow(1px 2px 2px rgba(185, 185, 185, 1));}#my-svg [data-look="neo"].node circle .state-start{fill:#000000;}#my-svg [data-look="neo"].icon-shape .icon{fill:#9370DB;filter:drop-shadow(1px 2px 2px rgba(185, 185, 185, 1));}#my-svg [data-look="neo"].icon-shape .icon-neo path{stroke:#9370DB;filter:drop-shadow(1px 2px 2px rgba(185, 185, 185, 1));}#my-svg :root{--mermaid-font-family:"trebuchet ms",verdana,arial,sans-serif;}#my-svg .function&gt;*{fill:#f9d0c4!important;stroke:#333!important;stroke-width:2px!important;}#my-svg .function span{fill:#f9d0c4!important;stroke:#333!important;stroke-width:2px!important;}#my-svg .process&gt;*{fill:#bbf!important;stroke:#333!important;stroke-width:2px!important;}#my-svg .process span{fill:#bbf!important;stroke:#333!important;stroke-width:2px!important;}#my-svg .output&gt;*{fill:#dfd!important;stroke:#333!important;stroke-width:2px!important;}#my-svg .output span{fill:#dfd!important;stroke:#333!important;stroke-width:2px!important;}#my-svg .input&gt;*{fill:#ffd700!important;stroke:#333!important;stroke-width:2px!important;}#my-svg .input span{fill:#ffd700!important;stroke:#333!important;stroke-width:2px!important;}</style><g><marker id="my-svg_flowchart-v2-pointEnd" class="marker flowchart-v2" viewBox="0 0 10 10" refX="5" refY="5" markerUnits="userSpaceOnUse" markerWidth="8" markerHeight="8" orient="auto"><path d="M 0 0 L 10 5 L 0 10 z" class="arrowMarkerPath" style="stroke-width: 1; stroke-dasharray: 1, 0;"/></marker><marker id="my-svg_flowchart-v2-pointStart" class="marker flowchart-v2" viewBox="0 0 10 10" refX="4.5" refY="5" markerUnits="userSpaceOnUse" markerWidth="8" markerHeight="8" orient="auto"><path d="M 0 5 L 10 10 L 10 0 z" class="arrowMarkerPath" style="stroke-width: 1; stroke-dasharray: 1, 0;"/></marker><marker id="my-svg_flowchart-v2-pointEnd-margin" class="marker flowchart-v2" viewBox="0 0 11.5 14" refX="11.5" refY="7" markerUnits="userSpaceOnUse" markerWidth="10.5" markerHeight="14" orient="auto"><path d="M 0 0 L 11.5 7 L 0 14 z" class="arrowMarkerPath" style="stroke-width: 0; stroke-dasharray: 1, 0;"/></marker><marker id="my-svg_flowchart-v2-pointStart-margin" class="marker flowchart-v2" viewBox="0 0 11.5 14" refX="1" refY="7" markerUnits="userSpaceOnUse" markerWidth="11.5" markerHeight="14" orient="auto"><polygon points="0,7 11.5,14 11.5,0" class="arrowMarkerPath" style="stroke-width: 0; stroke-dasharray: 1, 0;"/></marker><marker id="my-svg_flowchart-v2-circleEnd" class="marker flowchart-v2" viewBox="0 0 10 10" refX="11" refY="5" markerUnits="userSpaceOnUse" markerWidth="11" markerHeight="11" orient="auto"><circle cx="5" cy="5" r="5" class="arrowMarkerPath" style="stroke-width: 1; stroke-dasharray: 1, 0;"/></marker><marker id="my-svg_flowchart-v2-circleStart" class="marker flowchart-v2" viewBox="0 0 10 10" refX="-1" refY="5" markerUnits="userSpaceOnUse" markerWidth="11" markerHeight="11" orient="auto"><circle cx="5" cy="5" r="5" class="arrowMarkerPath" style="stroke-width: 1; stroke-dasharray: 1, 0;"/></marker><marker id="my-svg_flowchart-v2-circleEnd-margin" class="marker flowchart-v2" viewBox="0 0 10 10" refY="5" refX="12.25" markerUnits="userSpaceOnUse" markerWidth="14" markerHeight="14" orient="auto"><circle cx="5" cy="5" r="5" class="arrowMarkerPath" style="stroke-width: 0; stroke-dasharray: 1, 0;"/></marker><marker id="my-svg_flowchart-v2-circleStart-margin" class="marker flowchart-v2" viewBox="0 0 10 10" refX="-2" refY="5" markerUnits="userSpaceOnUse" markerWidth="14" markerHeight="14" orient="auto"><circle cx="5" cy="5" r="5" class="arrowMarkerPath" style="stroke-width: 0; stroke-dasharray: 1, 0;"/></marker><marker id="my-svg_flowchart-v2-crossEnd" class="marker cross flowchart-v2" viewBox="0 0 11 11" refX="12" refY="5.2" markerUnits="userSpaceOnUse" markerWidth="11" markerHeight="11" orient="auto"><path d="M 1,1 l 9,9 M 10,1 l -9,9" class="arrowMarkerPath" style="stroke-width: 2; stroke-dasharray: 1, 0;"/></marker><marker id="my-svg_flowchart-v2-crossStart" class="marker cross flowchart-v2" viewBox="0 0 11 11" refX="-1" refY="5.2" markerUnits="userSpaceOnUse" markerWidth="11" markerHeight="11" orient="auto"><path d="M 1,1 l 9,9 M 10,1 l -9,9" class="arrowMarkerPath" style="stroke-width: 2; stroke-dasharray: 1, 0;"/></marker><marker id="my-svg_flowchart-v2-crossEnd-margin" class="marker cross flowchart-v2" viewBox="0 0 15 15" refX="17.7" refY="7.5" markerUnits="userSpaceOnUse" markerWidth="12" markerHeight="12" orient="auto"><path d="M 1,1 L 14,14 M 1,14 L 14,1" class="arrowMarkerPath" style="stroke-width: 2.5;"/></marker><marker id="my-svg_flowchart-v2-crossStart-margin" class="marker cross flowchart-v2" viewBox="0 0 15 15" refX="-3.5" refY="7.5" markerUnits="userSpaceOnUse" markerWidth="12" markerHeight="12" orient="auto"><path d="M 1,1 L 14,14 M 1,14 L 14,1" class="arrowMarkerPath" style="stroke-width: 2.5; stroke-dasharray: 1, 0;"/></marker><g class="root"><g class="clusters"><g class="cluster" id="my-svg-Daily_Boxplot" data-look="classic"><rect style="" x="8" y="186" width="950" height="858"/><g class="cluster-label" transform="translate(397.484375, 186)"><foreignObject width="171.03125" height="24"><div xmlns="http://www.w3.org/1999/xhtml" style="display: table-cell; white-space: nowrap; line-height: 1.5;"><span class="nodeLabel"><p>Daily Statistical Boxplot</p></span></div></foreignObject></g></g><g class="cluster" id="my-svg-Comb_Boxplot" data-look="classic"><rect style="" x="978" y="186" width="749.546875" height="360"/><g class="cluster-label" transform="translate(1297.546875, 186)"><foreignObject width="110.453125" height="24"><div xmlns="http://www.w3.org/1999/xhtml" style="display: table-cell; white-space: nowrap; line-height: 1.5;"><span class="nodeLabel"><p>Overall Boxplot</p></span></div></foreignObject></g></g></g><g class="edgePaths"><path d="M806.694,44.44L777.934,49.033C749.174,53.626,691.653,62.813,662.963,70.99C634.273,79.167,634.414,86.334,634.484,89.917L634.554,93.501" id="my-svg-L_Start_In_K_0" class="edge-thickness-normal edge-pattern-solid edge-thickness-normal edge-pattern-solid flowchart-link" style=";" data-edge="true" data-et="edge" data-id="L_Start_In_K_0" data-points="W3sieCI6ODA2LjY5Mzk5OTQxNzAzMDksInkiOjQ0LjQzOTc0NTE2MzM1NzY0fSx7IngiOjYzNC4xMzI4MTI1LCJ5Ijo3Mn0seyJ4Ijo2MzQuNjMyODEyNSwieSI6OTcuNX1d" data-look="classic" marker-end="url(#my-svg_flowchart-v2-pointEnd)"/><path d="M907.5,47.5L907.417,51.583C907.333,55.667,907.167,63.833,907.154,71.5C907.141,79.167,907.281,86.334,907.351,89.917L907.422,93.501" id="my-svg-L_Start_In_H_0" class="edge-thickness-normal edge-pattern-solid edge-thickness-normal edge-pattern-solid flowchart-link" style=";" data-edge="true" data-et="edge" data-id="L_Start_In_H_0" data-points="W3sieCI6OTA3LjUsInkiOjQ3LjV9LHsieCI6OTA3LCJ5Ijo3Mn0seyJ4Ijo5MDcuNSwieSI6OTcuNX1d" data-look="classic" marker-end="url(#my-svg_flowchart-v2-pointEnd)"/><path d="M1008.49,44.326L1037.454,48.938C1066.418,53.551,1124.346,62.775,1153.38,70.971C1182.414,79.167,1182.554,86.334,1182.625,89.917L1182.695,93.501" id="my-svg-L_Start_In_B_0" class="edge-thickness-normal edge-pattern-solid edge-thickness-normal edge-pattern-solid flowchart-link" style=";" data-edge="true" data-et="edge" data-id="L_Start_In_B_0" data-points="W3sieCI6MTAwOC40OTAyNjY5MDAwNjg0LCJ5Ijo0NC4zMjU4MjgzMDMxODY4OX0seyJ4IjoxMTgyLjI3MzQzNzUsInkiOjcyfSx7IngiOjExODIuNzczNDM3NSwieSI6OTcuNX1d" data-look="classic" marker-end="url(#my-svg_flowchart-v2-pointEnd)"/><path d="M1112.227,277L1112.227,283.167C1112.227,289.333,1112.227,301.667,1129.206,312.443C1146.185,323.219,1180.143,332.439,1197.122,337.048L1214.101,341.658" id="my-svg-L_Add_Room_K_Concat_Rooms_0" class="edge-thickness-normal edge-pattern-solid edge-thickness-normal edge-pattern-solid flowchart-link" style=";" data-edge="true" data-et="edge" data-id="L_Add_Room_K_Concat_Rooms_0" data-points="W3sieCI6MTExMi4yMjY1NjI1LCJ5IjoyNzd9LHsieCI6MTExMi4yMjY1NjI1LCJ5IjozMTR9LHsieCI6MTIxNy45NjA5Mzc1LCJ5IjozNDIuNzA2MDM4MzExMTI4OH1d" data-look="classic" marker-end="url(#my-svg_flowchart-v2-pointEnd)"/><path d="M1347.961,277L1347.961,283.167C1347.961,289.333,1347.961,301.667,1347.961,311.333C1347.961,321,1347.961,328,1347.961,331.5L1347.961,335" id="my-svg-L_Add_Room_H_Concat_Rooms_0" class="edge-thickness-normal edge-pattern-solid edge-thickness-normal edge-pattern-solid flowchart-link" style=";" data-edge="true" data-et="edge" data-id="L_Add_Room_H_Concat_Rooms_0" data-points="W3sieCI6MTM0Ny45NjA5Mzc1LCJ5IjoyNzd9LHsieCI6MTM0Ny45NjA5Mzc1LCJ5IjozMTR9LHsieCI6MTM0Ny45NjA5Mzc1LCJ5IjozMzl9XQ==" data-look="classic" marker-end="url(#my-svg_flowchart-v2-pointEnd)"/><path d="M1588.508,277L1588.508,283.167C1588.508,289.333,1588.508,301.667,1570.728,312.564C1552.947,323.461,1517.387,332.922,1499.607,337.653L1481.826,342.384" id="my-svg-L_Add_Room_B_Concat_Rooms_0" class="edge-thickness-normal edge-pattern-solid edge-thickness-normal edge-pattern-solid flowchart-link" style=";" data-edge="true" data-et="edge" data-id="L_Add_Room_B_Concat_Rooms_0" data-points="W3sieCI6MTU4OC41MDc4MTI1LCJ5IjoyNzd9LHsieCI6MTU4OC41MDc4MTI1LCJ5IjozMTR9LHsieCI6MTQ3Ny45NjA5Mzc1LCJ5IjozNDMuNDEyMTQ2ODAwOTA5NH1d" data-look="classic" marker-end="url(#my-svg_flowchart-v2-pointEnd)"/><path d="M1347.961,417L1347.961,421.167C1347.961,425.333,1347.961,433.667,1348.034,442.667C1348.107,451.667,1348.254,461.334,1348.327,466.167L1348.4,471" id="my-svg-L_Concat_Rooms_Save_Overall_0" class="edge-thickness-normal edge-pattern-solid edge-thickness-normal edge-pattern-solid flowchart-link" style=";" data-edge="true" data-et="edge" data-id="L_Concat_Rooms_Save_Overall_0" data-points="W3sieCI6MTM0Ny45NjA5Mzc1LCJ5Ijo0MTd9LHsieCI6MTM0Ny45NjA5Mzc1LCJ5Ijo0NDJ9LHsieCI6MTM0OC40NjA5Mzc1LCJ5Ijo0NzV9XQ==" data-look="classic" marker-end="url(#my-svg_flowchart-v2-pointEnd)"/><path d="M717.719,124.734L783.47,130.778C849.222,136.822,980.724,148.911,1046.475,159.122C1112.227,169.333,1112.227,177.667,1112.227,187.333C1112.227,197,1112.227,208,1112.227,213.5L1112.227,219" id="my-svg-L_In_K_Add_Room_K_0" class="edge-thickness-normal edge-pattern-solid edge-thickness-normal edge-pattern-solid flowchart-link" style=";" data-edge="true" data-et="edge" data-id="L_In_K_Add_Room_K_0" data-points="W3sieCI6NzE3LjcxOTE4MTgzMjAyMTcsInkiOjEyNC43MzM1MTEzMzU5NTY1NH0seyJ4IjoxMTEyLjIyNjU2MjUsInkiOjE2MX0seyJ4IjoxMTEyLjIyNjU2MjUsInkiOjE4Nn0seyJ4IjoxMTEyLjIyNjU2MjUsInkiOjIyM31d" data-look="classic" marker-end="url(#my-svg_flowchart-v2-pointEnd)"/><path d="M978.169,124.132L1039.801,130.276C1101.433,136.421,1224.697,148.711,1286.329,159.022C1347.961,169.333,1347.961,177.667,1347.961,187.333C1347.961,197,1347.961,208,1347.961,213.5L1347.961,219" id="my-svg-L_In_H_Add_Room_H_0" class="edge-thickness-normal edge-pattern-solid edge-thickness-normal edge-pattern-solid flowchart-link" style=";" data-edge="true" data-et="edge" data-id="L_In_H_Add_Room_H_0" data-points="W3sieCI6OTc4LjE2ODU4MDg2NTk4MywieSI6MTI0LjEzMTU4ODI2ODAzMzk0fSx7IngiOjEzNDcuOTYwOTM3NSwieSI6MTYxfSx7IngiOjEzNDcuOTYwOTM3NSwieSI6MTg2fSx7IngiOjEzNDcuOTYwOTM3NSwieSI6MjIzfV0=" data-look="classic" marker-end="url(#my-svg_flowchart-v2-pointEnd)"/><path d="M1269.774,126.53L1322.896,132.275C1376.019,138.02,1482.263,149.51,1535.385,159.422C1588.508,169.333,1588.508,177.667,1588.508,187.333C1588.508,197,1588.508,208,1588.508,213.5L1588.508,219" id="my-svg-L_In_B_Add_Room_B_0" class="edge-thickness-normal edge-pattern-solid edge-thickness-normal edge-pattern-solid flowchart-link" style=";" data-edge="true" data-et="edge" data-id="L_In_B_Add_Room_B_0" data-points="W3sieCI6MTI2OS43NzM5MjkyMTc3MTg3LCJ5IjoxMjYuNTMwMjY2NTY0NTYyNn0seyJ4IjoxNTg4LjUwNzgxMjUsInkiOjE2MX0seyJ4IjoxNTg4LjUwNzgxMjUsInkiOjE4Nn0seyJ4IjoxNTg4LjUwNzgxMjUsInkiOjIyM31d" data-look="classic" marker-end="url(#my-svg_flowchart-v2-pointEnd)"/><path d="M173,289L173,293.167C173,297.333,173,305.667,202.347,315.892C231.694,326.118,290.388,338.235,319.736,344.294L349.083,350.353" id="my-svg-L_Extract_Day_K_Iterate_Rooms_0" class="edge-thickness-normal edge-pattern-solid edge-thickness-normal edge-pattern-solid flowchart-link" style=";" data-edge="true" data-et="edge" data-id="L_Extract_Day_K_Iterate_Rooms_0" data-points="W3sieCI6MTczLCJ5IjoyODl9LHsieCI6MTczLCJ5IjozMTR9LHsieCI6MzUzLCJ5IjozNTEuMTYxMjkwMzIyNTgwNjd9XQ==" data-look="classic" marker-end="url(#my-svg_flowchart-v2-pointEnd)"/><path d="M483,289L483,293.167C483,297.333,483,305.667,483,313.333C483,321,483,328,483,331.5L483,335" id="my-svg-L_Extract_Day_H_Iterate_Rooms_0" class="edge-thickness-normal edge-pattern-solid edge-thickness-normal edge-pattern-solid flowchart-link" style=";" data-edge="true" data-et="edge" data-id="L_Extract_Day_H_Iterate_Rooms_0" data-points="W3sieCI6NDgzLCJ5IjoyODl9LHsieCI6NDgzLCJ5IjozMTR9LHsieCI6NDgzLCJ5IjozMzl9XQ==" data-look="classic" marker-end="url(#my-svg_flowchart-v2-pointEnd)"/><path d="M793,289L793,293.167C793,297.333,793,305.667,763.653,315.892C734.306,326.118,675.612,338.235,646.264,344.294L616.917,350.353" id="my-svg-L_Extract_Day_B_Iterate_Rooms_0" class="edge-thickness-normal edge-pattern-solid edge-thickness-normal edge-pattern-solid flowchart-link" style=";" data-edge="true" data-et="edge" data-id="L_Extract_Day_B_Iterate_Rooms_0" data-points="W3sieCI6NzkzLCJ5IjoyODl9LHsieCI6NzkzLCJ5IjozMTR9LHsieCI6NjEzLCJ5IjozNTEuMTYxMjkwMzIyNTgwNjd9XQ==" data-look="classic" marker-end="url(#my-svg_flowchart-v2-pointEnd)"/><path d="M483,417L483,421.167C483,425.333,483,433.667,483,441.333C483,449,483,456,483,459.5L483,463" id="my-svg-L_Iterate_Rooms_Iterate_Days_0" class="edge-thickness-normal edge-pattern-solid edge-thickness-normal edge-pattern-solid flowchart-link" style=";" data-edge="true" data-et="edge" data-id="L_Iterate_Rooms_Iterate_Days_0" data-points="W3sieCI6NDgzLCJ5Ijo0MTd9LHsieCI6NDgzLCJ5Ijo0NDJ9LHsieCI6NDgzLCJ5Ijo0Njd9XQ==" data-look="classic" marker-end="url(#my-svg_flowchart-v2-pointEnd)"/><path d="M483,521L483,525.167C483,529.333,483,537.667,483,546C483,554.333,483,562.667,483,570.333C483,578,483,585,483,588.5L483,592" id="my-svg-L_Iterate_Days_Calc_Stats_0" class="edge-thickness-normal edge-pattern-solid edge-thickness-normal edge-pattern-solid flowchart-link" style=";" data-edge="true" data-et="edge" data-id="L_Iterate_Days_Calc_Stats_0" data-points="W3sieCI6NDgzLCJ5Ijo1MjF9LHsieCI6NDgzLCJ5Ijo1NDZ9LHsieCI6NDgzLCJ5Ijo1NzF9LHsieCI6NDgzLCJ5Ijo1OTZ9XQ==" data-look="classic" marker-end="url(#my-svg_flowchart-v2-pointEnd)"/><path d="M483,674L483,678.167C483,682.333,483,690.667,483,698.333C483,706,483,713,483,716.5L483,720" id="my-svg-L_Calc_Stats_Plot_Daily_0" class="edge-thickness-normal edge-pattern-solid edge-thickness-normal edge-pattern-solid flowchart-link" style=";" data-edge="true" data-et="edge" data-id="L_Calc_Stats_Plot_Daily_0" data-points="W3sieCI6NDgzLCJ5Ijo2NzR9LHsieCI6NDgzLCJ5Ijo2OTl9LHsieCI6NDgzLCJ5Ijo3MjR9XQ==" data-look="classic" marker-end="url(#my-svg_flowchart-v2-pointEnd)"/><path d="M483,778L483,782.167C483,786.333,483,794.667,483,802.333C483,810,483,817,483,820.5L483,824" id="my-svg-L_Plot_Daily_Color_Norm_0" class="edge-thickness-normal edge-pattern-solid edge-thickness-normal edge-pattern-solid flowchart-link" style=";" data-edge="true" data-et="edge" data-id="L_Plot_Daily_Color_Norm_0" data-points="W3sieCI6NDgzLCJ5Ijo3Nzh9LHsieCI6NDgzLCJ5Ijo4MDN9LHsieCI6NDgzLCJ5Ijo4Mjh9XQ==" data-look="classic" marker-end="url(#my-svg_flowchart-v2-pointEnd)"/><path d="M483,906L483,910.167C483,914.333,483,922.667,483.07,930.417C483.141,938.167,483.281,945.334,483.351,948.917L483.422,952.501" id="my-svg-L_Color_Norm_Save_Daily_0" class="edge-thickness-normal edge-pattern-solid edge-thickness-normal edge-pattern-solid flowchart-link" style=";" data-edge="true" data-et="edge" data-id="L_Color_Norm_Save_Daily_0" data-points="W3sieCI6NDgzLCJ5Ijo5MDZ9LHsieCI6NDgzLCJ5Ijo5MzF9LHsieCI6NDgzLjUsInkiOjk1Ni41fV0=" data-look="classic" marker-end="url(#my-svg_flowchart-v2-pointEnd)"/><path d="M543.271,125.817L481.56,131.68C419.848,137.544,296.424,149.272,234.712,159.303C173,169.333,173,177.667,173,185.333C173,193,173,200,173,203.5L173,207" id="my-svg-L_In_K_Extract_Day_K_0" class="edge-thickness-normal edge-pattern-solid edge-thickness-normal edge-pattern-solid flowchart-link" style=";" data-edge="true" data-et="edge" data-id="L_In_K_Extract_Day_K_0" data-points="W3sieCI6NTQzLjI3MTQzMzIzMjIzOTEsInkiOjEyNS44MTY1MDg1MzU1MjE2NX0seyJ4IjoxNzMsInkiOjE2MX0seyJ4IjoxNzMsInkiOjE4Nn0seyJ4IjoxNzMsInkiOjIxMX1d" data-look="classic" marker-end="url(#my-svg_flowchart-v2-pointEnd)"/><path d="M829.154,125.223L771.462,131.186C713.77,137.148,598.385,149.074,540.692,159.204C483,169.333,483,177.667,483,185.333C483,193,483,200,483,203.5L483,207" id="my-svg-L_In_H_Extract_Day_H_0" class="edge-thickness-normal edge-pattern-solid edge-thickness-normal edge-pattern-solid flowchart-link" style=";" data-edge="true" data-et="edge" data-id="L_In_H_Extract_Day_H_0" data-points="W3sieCI6ODI5LjE1NDMyNDgyODg3MzcsInkiOjEyNS4yMjI2MDAzNDIyNTI2NX0seyJ4Ijo0ODMsInkiOjE2MX0seyJ4Ijo0ODMsInkiOjE4Nn0seyJ4Ijo0ODMsInkiOjIxMX1d" data-look="classic" marker-end="url(#my-svg_flowchart-v2-pointEnd)"/><path d="M1085.445,128.126L1036.704,133.605C987.963,139.084,890.482,150.042,841.741,159.688C793,169.333,793,177.667,793,185.333C793,193,793,200,793,203.5L793,207" id="my-svg-L_In_B_Extract_Day_B_0" class="edge-thickness-normal edge-pattern-solid edge-thickness-normal edge-pattern-solid flowchart-link" style=";" data-edge="true" data-et="edge" data-id="L_In_B_Extract_Day_B_0" data-points="W3sieCI6MTA4NS40NDQ3MjA0ODAxNjEzLCJ5IjoxMjguMTI2MTg0MDM5Njc3M30seyJ4Ijo3OTMsInkiOjE2MX0seyJ4Ijo3OTMsInkiOjE4Nn0seyJ4Ijo3OTMsInkiOjIxMX1d" data-look="classic" marker-end="url(#my-svg_flowchart-v2-pointEnd)"/></g><g class="edgeLabels"><g class="edgeLabel"><g class="label" data-id="L_Start_In_K_0" transform="translate(0, 0)"><foreignObject width="0" height="0"><div xmlns="http://www.w3.org/1999/xhtml" class="labelBkg" style="display: table-cell; white-space: nowrap; line-height: 1.5; max-width: 200px; text-align: center;"><span class="edgeLabel"></span></div></foreignObject></g></g><g class="edgeLabel"><g class="label" data-id="L_Start_In_H_0" transform="translate(0, 0)"><foreignObject width="0" height="0"><div xmlns="http://www.w3.org/1999/xhtml" class="labelBkg" style="display: table-cell; white-space: nowrap; line-height: 1.5; max-width: 200px; text-align: center;"><span class="edgeLabel"></span></div></foreignObject></g></g><g class="edgeLabel"><g class="label" data-id="L_Start_In_B_0" transform="translate(0, 0)"><foreignObject width="0" height="0"><div xmlns="http://www.w3.org/1999/xhtml" class="labelBkg" style="display: table-cell; white-space: nowrap; line-height: 1.5; max-width: 200px; text-align: center;"><span class="edgeLabel"></span></div></foreignObject></g></g><g class="edgeLabel"><g class="label" data-id="L_Add_Room_K_Concat_Rooms_0" transform="translate(0, 0)"><foreignObject width="0" height="0"><div xmlns="http://www.w3.org/1999/xhtml" class="labelBkg" style="display: table-cell; white-space: nowrap; line-height: 1.5; max-width: 200px; text-align: center;"><span class="edgeLabel"></span></div></foreignObject></g></g><g class="edgeLabel"><g class="label" data-id="L_Add_Room_H_Concat_Rooms_0" transform="translate(0, 0)"><foreignObject width="0" height="0"><div xmlns="http://www.w3.org/1999/xhtml" class="labelBkg" style="display: table-cell; white-space: nowrap; line-height: 1.5; max-width: 200px; text-align: center;"><span class="edgeLabel"></span></div></foreignObject></g></g><g class="edgeLabel"><g class="label" data-id="L_Add_Room_B_Concat_Rooms_0" transform="translate(0, 0)"><foreignObject width="0" height="0"><div xmlns="http://www.w3.org/1999/xhtml" class="labelBkg" style="display: table-cell; white-space: nowrap; line-height: 1.5; max-width: 200px; text-align: center;"><span class="edgeLabel"></span></div></foreignObject></g></g><g class="edgeLabel"><g class="label" data-id="L_Concat_Rooms_Save_Overall_0" transform="translate(0, 0)"><foreignObject width="0" height="0"><div xmlns="http://www.w3.org/1999/xhtml" class="labelBkg" style="display: table-cell; white-space: nowrap; line-height: 1.5; max-width: 200px; text-align: center;"><span class="edgeLabel"></span></div></foreignObject></g></g><g class="edgeLabel"><g class="label" data-id="L_In_K_Add_Room_K_0" transform="translate(0, 0)"><foreignObject width="0" height="0"><div xmlns="http://www.w3.org/1999/xhtml" class="labelBkg" style="display: table-cell; white-space: nowrap; line-height: 1.5; max-width: 200px; text-align: center;"><span class="edgeLabel"></span></div></foreignObject></g></g><g class="edgeLabel"><g class="label" data-id="L_In_H_Add_Room_H_0" transform="translate(0, 0)"><foreignObject width="0" height="0"><div xmlns="http://www.w3.org/1999/xhtml" class="labelBkg" style="display: table-cell; white-space: nowrap; line-height: 1.5; max-width: 200px; text-align: center;"><span class="edgeLabel"></span></div></foreignObject></g></g><g class="edgeLabel"><g class="label" data-id="L_In_B_Add_Room_B_0" transform="translate(0, 0)"><foreignObject width="0" height="0"><div xmlns="http://www.w3.org/1999/xhtml" class="labelBkg" style="display: table-cell; white-space: nowrap; line-height: 1.5; max-width: 200px; text-align: center;"><span class="edgeLabel"></span></div></foreignObject></g></g><g class="edgeLabel"><g class="label" data-id="L_Extract_Day_K_Iterate_Rooms_0" transform="translate(0, 0)"><foreignObject width="0" height="0"><div xmlns="http://www.w3.org/1999/xhtml" class="labelBkg" style="display: table-cell; white-space: nowrap; line-height: 1.5; max-width: 200px; text-align: center;"><span class="edgeLabel"></span></div></foreignObject></g></g><g class="edgeLabel"><g class="label" data-id="L_Extract_Day_H_Iterate_Rooms_0" transform="translate(0, 0)"><foreignObject width="0" height="0"><div xmlns="http://www.w3.org/1999/xhtml" class="labelBkg" style="display: table-cell; white-space: nowrap; line-height: 1.5; max-width: 200px; text-align: center;"><span class="edgeLabel"></span></div></foreignObject></g></g><g class="edgeLabel"><g class="label" data-id="L_Extract_Day_B_Iterate_Rooms_0" transform="translate(0, 0)"><foreignObject width="0" height="0"><div xmlns="http://www.w3.org/1999/xhtml" class="labelBkg" style="display: table-cell; white-space: nowrap; line-height: 1.5; max-width: 200px; text-align: center;"><span class="edgeLabel"></span></div></foreignObject></g></g><g class="edgeLabel"><g class="label" data-id="L_Iterate_Rooms_Iterate_Days_0" transform="translate(0, 0)"><foreignObject width="0" height="0"><div xmlns="http://www.w3.org/1999/xhtml" class="labelBkg" style="display: table-cell; white-space: nowrap; line-height: 1.5; max-width: 200px; text-align: center;"><span class="edgeLabel"></span></div></foreignObject></g></g><g class="edgeLabel"><g class="label" data-id="L_Iterate_Days_Calc_Stats_0" transform="translate(0, 0)"><foreignObject width="0" height="0"><div xmlns="http://www.w3.org/1999/xhtml" class="labelBkg" style="display: table-cell; white-space: nowrap; line-height: 1.5; max-width: 200px; text-align: center;"><span class="edgeLabel"></span></div></foreignObject></g></g><g class="edgeLabel"><g class="label" data-id="L_Calc_Stats_Plot_Daily_0" transform="translate(0, 0)"><foreignObject width="0" height="0"><div xmlns="http://www.w3.org/1999/xhtml" class="labelBkg" style="display: table-cell; white-space: nowrap; line-height: 1.5; max-width: 200px; text-align: center;"><span class="edgeLabel"></span></div></foreignObject></g></g><g class="edgeLabel"><g class="label" data-id="L_Plot_Daily_Color_Norm_0" transform="translate(0, 0)"><foreignObject width="0" height="0"><div xmlns="http://www.w3.org/1999/xhtml" class="labelBkg" style="display: table-cell; white-space: nowrap; line-height: 1.5; max-width: 200px; text-align: center;"><span class="edgeLabel"></span></div></foreignObject></g></g><g class="edgeLabel"><g class="label" data-id="L_Color_Norm_Save_Daily_0" transform="translate(0, 0)"><foreignObject width="0" height="0"><div xmlns="http://www.w3.org/1999/xhtml" class="labelBkg" style="display: table-cell; white-space: nowrap; line-height: 1.5; max-width: 200px; text-align: center;"><span class="edgeLabel"></span></div></foreignObject></g></g><g class="edgeLabel"><g class="label" data-id="L_In_K_Extract_Day_K_0" transform="translate(0, 0)"><foreignObject width="0" height="0"><div xmlns="http://www.w3.org/1999/xhtml" class="labelBkg" style="display: table-cell; white-space: nowrap; line-height: 1.5; max-width: 200px; text-align: center;"><span class="edgeLabel"></span></div></foreignObject></g></g><g class="edgeLabel"><g class="label" data-id="L_In_H_Extract_Day_H_0" transform="translate(0, 0)"><foreignObject width="0" height="0"><div xmlns="http://www.w3.org/1999/xhtml" class="labelBkg" style="display: table-cell; white-space: nowrap; line-height: 1.5; max-width: 200px; text-align: center;"><span class="edgeLabel"></span></div></foreignObject></g></g><g class="edgeLabel"><g class="label" data-id="L_In_B_Extract_Day_B_0" transform="translate(0, 0)"><foreignObject width="0" height="0"><div xmlns="http://www.w3.org/1999/xhtml" class="labelBkg" style="display: table-cell; white-space: nowrap; line-height: 1.5; max-width: 200px; text-align: center;"><span class="edgeLabel"></span></div></foreignObject></g></g></g><g class="nodes"><g class="node default function" id="my-svg-flowchart-Start-0" data-look="classic" transform="translate(907, 27.5)"><g class="basic label-container outer-path"><path d="M-90.328125 -19.5 C-24.43895067477925 -19.5, 41.4502236504415 -19.5, 90.328125 -19.5 C90.328125 -19.5, 90.328125 -19.5, 90.328125 -19.5 C90.58666550816235 -19.491709109121803, 90.84520601632472 -19.483418218243607, 91.5774942896239 -19.45993515863156 C92.04998905662248 -19.4143541567173, 92.52248382362104 -19.368773154803048, 92.82172965284786 -19.3399052695533 C93.19756363275597 -19.279143346317802, 93.57339761266407 -19.218381423082306, 94.05571825967675 -19.140403561325776 C94.48865854218893 -19.041587767041744, 94.9215988247011 -18.94277197275771, 95.27438938623538 -18.862249829261074 C95.75020444143667 -18.721030418481526, 96.22601949663796 -18.579811007701977, 96.4727352514606 -18.50658706670804 C96.88652488945885 -18.3543086548952, 97.30031452745712 -18.20203024308236, 97.6458315951478 -18.074876768247425 C97.95965012870695 -17.93595861253683, 98.27346866226613 -17.79704045682623, 98.78885791279238 -17.568892924097174 C99.07664355379852 -17.418755339519773, 99.36442919480466 -17.268617754942372, 99.89711726407678 -16.990714730406097 C100.31207509078924 -16.739164857290145, 100.72703291750169 -16.48761498417419, 100.9660555736057 -16.342718045390892 C101.1989339819025 -16.180272148906866, 101.43181239019928 -16.017826252422836, 101.99128034457871 -15.627565626425154 C102.33226178514366 -15.355642001471821, 102.6732432257086 -15.083718376518489, 102.96857870850187 -14.848196188198123 C103.23512310059776 -14.606127623674787, 103.50166749269366 -14.364059059151451, 103.89393473676799 -14.007812326905688 C104.10820882396384 -13.786556739646251, 104.32248291115967 -13.565301152386816, 104.76354594296865 -13.10986736009568 C104.95897823994177 -12.880301463658329, 105.15441053691488 -12.650735567220979, 105.57383890812658 -12.158051136245305 C105.79046779633178 -11.86778816134804, 106.00709668453699 -11.577525186450774, 106.32148396464063 -11.156274872382312 C106.49231820156973 -10.89382760904345, 106.66315243849881 -10.63138034570459, 107.00340887860425 -10.108655082055241 C107.20153210202733 -9.75686723671572, 107.39965532545041 -9.405079391376198, 107.6168114742735 -9.019496659696287 C107.78075011010014 -8.679074574677392, 107.94468874592678 -8.338652489658498, 108.15917114880834 -7.893275190886684 C108.30105563506947 -7.542817766671767, 108.4429401213306 -7.19236034245685, 108.62825922997033 -6.734618561215508 C108.73000880416748 -6.428165055326757, 108.83175837836464 -6.121711549438006, 109.02214813421489 -5.548287939305138 C109.14202273678208 -5.091154125734999, 109.26189733934929 -4.634020312164861, 109.33921928754556 -4.339158212148133 C109.4012917710837 -4.020429128203813, 109.46336425462184 -3.7017000442594936, 109.57816977658177 -3.1121979531509023 C109.6416207785844 -2.620084511436114, 109.70507178058702 -2.127971069721326, 109.73801770250937 -1.872449005199798 C109.7585941066205 -1.5519549021943848, 109.77917051073165 -1.2314607991889714, 109.81810621591342 -0.6250057626472757 C109.81810621591342 -0.2355974401567466, 109.81810621591342 0.15381088233378248, 109.81810621591342 0.625005762647271 C109.79178230546881 1.035021916100079, 109.7654583950242 1.445038069552887, 109.73801770250937 1.8724490051997846 C109.69137493562319 2.234201094512894, 109.64473216873701 2.595953183826004, 109.57816977658177 3.1121979531508885 C109.52587600155344 3.3807154356281126, 109.47358222652511 3.6492329181053362, 109.33921928754556 4.339158212148129 C109.27374984531077 4.588821570025149, 109.20828040307597 4.8384849279021696, 109.02214813421489 5.548287939305125 C108.9429340103452 5.7868682593439775, 108.8637198864755 6.025448579382829, 108.62825922997033 6.734618561215495 C108.44422780506119 7.189179738746605, 108.26019638015207 7.643740916277716, 108.15917114880834 7.893275190886679 C108.01833817821932 8.185717867657623, 107.8775052076303 8.478160544428565, 107.6168114742735 9.019496659696284 C107.43176416436988 9.348066896502187, 107.24671685446624 9.676637133308093, 107.00340887860425 10.108655082055236 C106.82816407940449 10.377878153443644, 106.65291928020474 10.647101224832054, 106.32148396464065 11.156274872382301 C106.09565947591025 11.458859114246875, 105.86983498717987 11.76144335611145, 105.57383890812659 12.158051136245302 C105.34742245970955 12.42401278001684, 105.12100601129252 12.689974423788378, 104.76354594296866 13.10986736009567 C104.54822563266639 13.332203258609013, 104.33290532236411 13.554539157122356, 103.89393473676799 14.007812326905684 C103.66708898923949 14.213827632801497, 103.44024324171097 14.419842938697307, 102.9685787085019 14.848196188198111 C102.66173909508527 15.092892614552829, 102.35489948166865 15.337589040907547, 101.99128034457871 15.627565626425152 C101.78060341317838 15.774524733712653, 101.56992648177805 15.921483841000153, 100.9660555736057 16.34271804539089 C100.64073321542385 16.539930370727113, 100.315410857242 16.737142696063334, 99.89711726407678 16.990714730406093 C99.53732608097587 17.178417560172587, 99.17753489787495 17.366120389939084, 98.78885791279238 17.56889292409717 C98.48420999867078 17.70375151861952, 98.17956208454918 17.83861011314187, 97.6458315951478 18.07487676824742 C97.2409611077725 18.22387285018329, 96.8360906203972 18.372868932119157, 96.47273525146062 18.506587066708033 C96.20448980368157 18.586200907559768, 95.9362443559025 18.665814748411506, 95.27438938623541 18.86224982926107 C94.9101750332829 18.945379378601714, 94.54596068033037 19.028508927942358, 94.05571825967677 19.140403561325773 C93.69184472456402 19.199231812601393, 93.32797118945126 19.258060063877014, 92.82172965284788 19.3399052695533 C92.53720513276993 19.36735300781442, 92.25268061269198 19.39480074607554, 91.5774942896239 19.45993515863156 C91.1120891303446 19.47485979623346, 90.64668397106529 19.489784433835357, 90.328125 19.5 C90.328125 19.5, 90.328125 19.5, 90.328125 19.5 C22.104279241197915 19.5, -46.11956651760417 19.5, -90.328125 19.5 C-90.78343339783157 19.485399145885577, -91.23874179566316 19.47079829177115, -91.5774942896239 19.45993515863156 C-91.90943246682588 19.42791348189095, -92.24137064402785 19.395891805150338, -92.82172965284786 19.3399052695533 C-93.22343012709122 19.274961452111334, -93.62513060133458 19.210017634669374, -94.05571825967675 19.140403561325773 C-94.45969144423636 19.048199318121437, -94.86366462879596 18.9559950749171, -95.27438938623538 18.862249829261074 C-95.62198259738841 18.759085988744857, -95.96957580854142 18.655922148228637, -96.47273525146059 18.506587066708043 C-96.73840399598184 18.408818512909267, -97.0040727405031 18.311049959110495, -97.6458315951478 18.074876768247425 C-98.08719124150035 17.879499945275885, -98.52855088785289 17.684123122304346, -98.78885791279238 17.568892924097174 C-99.1364825145096 17.387537392045484, -99.48410711622682 17.206181859993798, -99.89711726407678 16.990714730406097 C-100.20044434380266 16.806836072128487, -100.50377142352855 16.622957413850877, -100.96605557360569 16.3427180453909 C-101.29393073593306 16.11400652563834, -101.62180589826043 15.885295005885784, -101.99128034457871 15.627565626425156 C-102.24220441529937 15.42746035739539, -102.49312848602001 15.227355088365623, -102.96857870850187 14.848196188198125 C-103.27000291474063 14.57445069933955, -103.5714271209794 14.300705210480976, -103.89393473676797 14.007812326905697 C-104.10848634670069 13.7862701746354, -104.3230379566334 13.564728022365104, -104.76354594296865 13.109867360095677 C-105.00999298702824 12.82037663890921, -105.25644003108783 12.530885917722742, -105.57383890812658 12.158051136245307 C-105.74621221771186 11.927086604932594, -105.91858552729713 11.696122073619879, -106.32148396464063 11.156274872382316 C-106.56471900143649 10.782600538111161, -106.80795403823234 10.408926203840007, -107.00340887860425 10.108655082055249 C-107.14425949062915 9.858560557733979, -107.28511010265404 9.60846603341271, -107.6168114742735 9.019496659696289 C-107.8198637920074 8.59785417729826, -108.02291610974129 8.17621169490023, -108.15917114880834 7.893275190886686 C-108.25553208488728 7.655261815759765, -108.3518930209662 7.417248440632843, -108.62825922997033 6.73461856121551 C-108.76363497200863 6.326888395391472, -108.89901071404694 5.919158229567434, -109.02214813421489 5.5482879393051325 C-109.11193448476415 5.205893671010299, -109.20172083531341 4.863499402715467, -109.33921928754556 4.339158212148136 C-109.40913010746857 3.980180927500503, -109.47904092739158 3.62120364285287, -109.57816977658177 3.112197953150904 C-109.63728694627393 2.6536968590240857, -109.6964041159661 2.195195764897267, -109.73801770250937 1.872449005199809 C-109.7550635506774 1.606946160821607, -109.77210939884544 1.3414433164434048, -109.81810621591342 0.6250057626472781 C-109.81810621591342 0.17129951933083737, -109.81810621591342 -0.2824067239856034, -109.81810621591342 -0.6250057626472687 C-109.79333667347244 -1.0108113797803338, -109.76856713103146 -1.3966169969133986, -109.73801770250937 -1.8724490051997822 C-109.67676856164522 -2.347485246731261, -109.61551942078106 -2.8225214882627405, -109.57816977658177 -3.112197953150895 C-109.52776775642026 -3.3710016742095252, -109.47736573625875 -3.6298053952681553, -109.33921928754556 -4.339158212148126 C-109.23590665008767 -4.733134074755355, -109.1325940126298 -5.127109937362585, -109.02214813421489 -5.548287939305123 C-108.91901652681695 -5.858903908997575, -108.81588491941899 -6.169519878690026, -108.62825922997033 -6.734618561215485 C-108.53391935194553 -6.967639883874208, -108.43957947392072 -7.200661206532931, -108.15917114880834 -7.893275190886676 C-108.04616121301797 -8.127942740580652, -107.9331512772276 -8.362610290274628, -107.6168114742735 -9.019496659696282 C-107.46777006204361 -9.28413477918997, -107.31872864981372 -9.548772898683659, -107.00340887860425 -10.108655082055243 C-106.82621200478889 -10.380877064258645, -106.64901513097352 -10.653099046462046, -106.32148396464063 -11.156274872382308 C-106.05319887616601 -11.51575244966394, -105.7849137876914 -11.875230026945573, -105.57383890812659 -12.158051136245302 C-105.32168985672999 -12.45423975970322, -105.06954080533339 -12.750428383161138, -104.76354594296866 -13.10986736009567 C-104.46151912244494 -13.421734849149535, -104.15949230192122 -13.733602338203399, -103.89393473676799 -14.007812326905677 C-103.5761816015198 -14.296387317050826, -103.25842846627162 -14.584962307195973, -102.9685787085019 -14.848196188198107 C-102.67788976087499 -15.080012888372789, -102.38720081324809 -15.311829588547472, -101.99128034457871 -15.627565626425149 C-101.70463385080419 -15.827517811755536, -101.41798735702967 -16.027469997085923, -100.96605557360571 -16.342718045390885 C-100.70019141708914 -16.503886459462436, -100.43432726057257 -16.665054873533986, -99.89711726407678 -16.99071473040609 C-99.65744661466027 -17.115750754690307, -99.41777596524376 -17.240786778974524, -98.7888579127924 -17.56889292409717 C-98.43653218844759 -17.724857070893343, -98.08420646410278 -17.880821217689515, -97.64583159514781 -18.07487676824742 C-97.34945033491836 -18.183947811730196, -97.05306907468889 -18.29301885521297, -96.47273525146062 -18.506587066708033 C-96.16860420759433 -18.596851564111123, -95.86447316372802 -18.687116061514214, -95.27438938623541 -18.862249829261067 C-94.82600796717983 -18.9645899621983, -94.37762654812424 -19.066930095135532, -94.05571825967677 -19.140403561325773 C-93.75477796800504 -19.18905725385644, -93.45383767633332 -19.237710946387107, -92.82172965284788 -19.3399052695533 C-92.54699534258422 -19.366408558048082, -92.27226103232057 -19.39291184654287, -91.5774942896239 -19.45993515863156 C-91.31005695014422 -19.46851135357347, -91.04261961066452 -19.47708754851538, -90.328125 -19.5 C-90.328125 -19.5, -90.328125 -19.5, -90.328125 -19.5" stroke="none" stroke-width="0" fill="#f9d0c4" style="fill:#f9d0c4 !important;stroke:#333 !important;stroke-width:2px !important"/><path d="M-90.328125 -19.5 C-46.08626218056227 -19.5, -1.8443993611245446 -19.5, 90.328125 -19.5 M-90.328125 -19.5 C-39.15667014537854 -19.5, 12.014784709242917 -19.5, 90.328125 -19.5 M90.328125 -19.5 C90.328125 -19.5, 90.328125 -19.5, 90.328125 -19.5 M90.328125 -19.5 C90.328125 -19.5, 90.328125 -19.5, 90.328125 -19.5 M90.328125 -19.5 C90.71488319229557 -19.487597417552234, 91.10164138459116 -19.475194835104467, 91.5774942896239 -19.45993515863156 M90.328125 -19.5 C90.69337219500052 -19.48828723336687, 91.05861939000104 -19.47657446673374, 91.5774942896239 -19.45993515863156 M91.5774942896239 -19.45993515863156 C91.8858831351385 -19.430185257596616, 92.1942719806531 -19.400435356561673, 92.82172965284786 -19.3399052695533 M91.5774942896239 -19.45993515863156 C91.9099263309839 -19.427865839409584, 92.24235837234389 -19.39579652018761, 92.82172965284786 -19.3399052695533 M92.82172965284786 -19.3399052695533 C93.29246998786769 -19.263799622833115, 93.76321032288753 -19.18769397611293, 94.05571825967675 -19.140403561325776 M92.82172965284786 -19.3399052695533 C93.23611533736039 -19.272910605690292, 93.6505010218729 -19.20591594182729, 94.05571825967675 -19.140403561325776 M94.05571825967675 -19.140403561325776 C94.49576973061562 -19.039964684688194, 94.93582120155448 -18.93952580805061, 95.27438938623538 -18.862249829261074 M94.05571825967675 -19.140403561325776 C94.41904755331372 -19.057476020998354, 94.78237684695068 -18.974548480670933, 95.27438938623538 -18.862249829261074 M95.27438938623538 -18.862249829261074 C95.56013074800354 -18.7774432929753, 95.8458721097717 -18.692636756689527, 96.4727352514606 -18.50658706670804 M95.27438938623538 -18.862249829261074 C95.54608384763537 -18.78161233927089, 95.81777830903535 -18.70097484928071, 96.4727352514606 -18.50658706670804 M96.4727352514606 -18.50658706670804 C96.7281781669292 -18.412581712527174, 96.98362108239778 -18.318576358346306, 97.6458315951478 -18.074876768247425 M96.4727352514606 -18.50658706670804 C96.88245713584814 -18.355805625825845, 97.29217902023568 -18.20502418494365, 97.6458315951478 -18.074876768247425 M97.6458315951478 -18.074876768247425 C98.04792517633567 -17.89688186753785, 98.45001875752352 -17.71888696682828, 98.78885791279238 -17.568892924097174 M97.6458315951478 -18.074876768247425 C98.07445151336603 -17.885139445010342, 98.50307143158425 -17.695402121773256, 98.78885791279238 -17.568892924097174 M98.78885791279238 -17.568892924097174 C99.02088559682235 -17.447844229959564, 99.25291328085233 -17.326795535821955, 99.89711726407678 -16.990714730406097 M98.78885791279238 -17.568892924097174 C99.02385140044494 -17.446296972109344, 99.25884488809751 -17.32370102012151, 99.89711726407678 -16.990714730406097 M99.89711726407678 -16.990714730406097 C100.17304067397596 -16.82344833781927, 100.44896408387515 -16.656181945232444, 100.9660555736057 -16.342718045390892 M99.89711726407678 -16.990714730406097 C100.11407768403836 -16.859192048824436, 100.33103810399994 -16.72766936724278, 100.9660555736057 -16.342718045390892 M100.9660555736057 -16.342718045390892 C101.32430264619104 -16.09282039582118, 101.68254971877639 -15.84292274625147, 101.99128034457871 -15.627565626425154 M100.9660555736057 -16.342718045390892 C101.3394232923515 -16.082272887621865, 101.71279101109731 -15.821827729852838, 101.99128034457871 -15.627565626425154 M101.99128034457871 -15.627565626425154 C102.36742173618512 -15.327602876161848, 102.74356312779152 -15.027640125898543, 102.96857870850187 -14.848196188198123 M101.99128034457871 -15.627565626425154 C102.34916548767077 -15.342161748532861, 102.70705063076284 -15.056757870640567, 102.96857870850187 -14.848196188198123 M102.96857870850187 -14.848196188198123 C103.1613744460175 -14.6731042004821, 103.35417018353316 -14.498012212766078, 103.89393473676799 -14.007812326905688 M102.96857870850187 -14.848196188198123 C103.32651945199012 -14.523123875555187, 103.6844601954784 -14.198051562912253, 103.89393473676799 -14.007812326905688 M103.89393473676799 -14.007812326905688 C104.14960632026386 -13.743810425918811, 104.40527790375974 -13.479808524931933, 104.76354594296865 -13.10986736009568 M103.89393473676799 -14.007812326905688 C104.1441663822975 -13.749427608496303, 104.394398027827 -13.491042890086916, 104.76354594296865 -13.10986736009568 M104.76354594296865 -13.10986736009568 C105.02554326824668 -12.802110393753965, 105.28754059352471 -12.49435342741225, 105.57383890812658 -12.158051136245305 M104.76354594296865 -13.10986736009568 C104.98738730099343 -12.846930564025675, 105.21122865901822 -12.583993767955667, 105.57383890812658 -12.158051136245305 M105.57383890812658 -12.158051136245305 C105.77346340716336 -11.890572493702, 105.97308790620015 -11.623093851158696, 106.32148396464063 -11.156274872382312 M105.57383890812658 -12.158051136245305 C105.75437169396223 -11.916153650100657, 105.9349044797979 -11.67425616395601, 106.32148396464063 -11.156274872382312 M106.32148396464063 -11.156274872382312 C106.56616148561646 -10.78038449504947, 106.8108390065923 -10.404494117716627, 107.00340887860425 -10.108655082055241 M106.32148396464063 -11.156274872382312 C106.53448754952011 -10.829044166536217, 106.74749113439958 -10.501813460690123, 107.00340887860425 -10.108655082055241 M107.00340887860425 -10.108655082055241 C107.16340487083248 -9.824565996502983, 107.32340086306071 -9.540476910950726, 107.6168114742735 -9.019496659696287 M107.00340887860425 -10.108655082055241 C107.18570838834697 -9.78496384267996, 107.3680078980897 -9.46127260330468, 107.6168114742735 -9.019496659696287 M107.6168114742735 -9.019496659696287 C107.7312598339939 -8.781842191934262, 107.84570819371432 -8.544187724172238, 108.15917114880834 -7.893275190886684 M107.6168114742735 -9.019496659696287 C107.80949634069177 -8.619382411783095, 108.00218120711001 -8.219268163869904, 108.15917114880834 -7.893275190886684 M108.15917114880834 -7.893275190886684 C108.27911558938683 -7.597010103689794, 108.39906002996534 -7.300745016492904, 108.62825922997033 -6.734618561215508 M108.15917114880834 -7.893275190886684 C108.33551900808469 -7.45769256902018, 108.51186686736105 -7.022109947153675, 108.62825922997033 -6.734618561215508 M108.62825922997033 -6.734618561215508 C108.75881956355022 -6.341391638437048, 108.88937989713013 -5.948164715658589, 109.02214813421489 -5.548287939305138 M108.62825922997033 -6.734618561215508 C108.76321658972587 -6.328148496166986, 108.89817394948142 -5.9216784311184645, 109.02214813421489 -5.548287939305138 M109.02214813421489 -5.548287939305138 C109.11451297684654 -5.196060763174601, 109.20687781947821 -4.843833587044064, 109.33921928754556 -4.339158212148133 M109.02214813421489 -5.548287939305138 C109.11066379996234 -5.210739342877888, 109.19917946570979 -4.873190746450639, 109.33921928754556 -4.339158212148133 M109.33921928754556 -4.339158212148133 C109.43207970583775 -3.8623395902740913, 109.52494012412994 -3.3855209684000496, 109.57816977658177 -3.1121979531509023 M109.33921928754556 -4.339158212148133 C109.42737058240867 -3.886519943808832, 109.51552187727178 -3.4338816754695305, 109.57816977658177 -3.1121979531509023 M109.57816977658177 -3.1121979531509023 C109.61907164441523 -2.79497114322196, 109.6599735122487 -2.477744333293017, 109.73801770250937 -1.872449005199798 M109.57816977658177 -3.1121979531509023 C109.63695346692418 -2.6562832590078056, 109.69573715726659 -2.200368564864709, 109.73801770250937 -1.872449005199798 M109.73801770250937 -1.872449005199798 C109.76978021316306 -1.3777222635314745, 109.80154272381674 -0.882995521863151, 109.81810621591342 -0.6250057626472757 M109.73801770250937 -1.872449005199798 C109.7561531927258 -1.589974106374467, 109.77428868294226 -1.307499207549136, 109.81810621591342 -0.6250057626472757 M109.81810621591342 -0.6250057626472757 C109.81810621591342 -0.3243963414654039, 109.81810621591342 -0.02378692028353213, 109.81810621591342 0.625005762647271 M109.81810621591342 -0.6250057626472757 C109.81810621591342 -0.2151476161740507, 109.81810621591342 0.1947105302991743, 109.81810621591342 0.625005762647271 M109.81810621591342 0.625005762647271 C109.79755341896349 0.9451321650616014, 109.77700062201355 1.2652585674759318, 109.73801770250937 1.8724490051997846 M109.81810621591342 0.625005762647271 C109.78721361189743 1.1061830062574485, 109.75632100788144 1.5873602498676258, 109.73801770250937 1.8724490051997846 M109.73801770250937 1.8724490051997846 C109.69326018113715 2.2195795025904372, 109.64850265976493 2.56670999998109, 109.57816977658177 3.1121979531508885 M109.73801770250937 1.8724490051997846 C109.68708879027261 2.2674435914568054, 109.63615987803585 2.6624381777138266, 109.57816977658177 3.1121979531508885 M109.57816977658177 3.1121979531508885 C109.49381724725939 3.545330363307956, 109.409464717937 3.978462773465023, 109.33921928754556 4.339158212148129 M109.57816977658177 3.1121979531508885 C109.49224498621605 3.553403591467999, 109.40632019585033 3.994609229785109, 109.33921928754556 4.339158212148129 M109.33921928754556 4.339158212148129 C109.26097400170904 4.637541398764139, 109.18272871587254 4.93592458538015, 109.02214813421489 5.548287939305125 M109.33921928754556 4.339158212148129 C109.2158017145649 4.809802907437876, 109.09238414158425 5.280447602727624, 109.02214813421489 5.548287939305125 M109.02214813421489 5.548287939305125 C108.91380802755083 5.874591078925465, 108.80546792088676 6.2008942185458045, 108.62825922997033 6.734618561215495 M109.02214813421489 5.548287939305125 C108.90869666101295 5.889985700551881, 108.795245187811 6.231683461798637, 108.62825922997033 6.734618561215495 M108.62825922997033 6.734618561215495 C108.4569324362604 7.157799054057234, 108.28560564255046 7.580979546898973, 108.15917114880834 7.893275190886679 M108.62825922997033 6.734618561215495 C108.51629605183544 7.011169775869446, 108.40433287370055 7.287720990523398, 108.15917114880834 7.893275190886679 M108.15917114880834 7.893275190886679 C108.00442185919489 8.214615401873363, 107.84967256958146 8.535955612860047, 107.6168114742735 9.019496659696284 M108.15917114880834 7.893275190886679 C108.02809191452519 8.165464025521972, 107.89701268024203 8.437652860157266, 107.6168114742735 9.019496659696284 M107.6168114742735 9.019496659696284 C107.37183863389825 9.454470743972516, 107.12686579352301 9.889444828248747, 107.00340887860425 10.108655082055236 M107.6168114742735 9.019496659696284 C107.40677555195981 9.392436708207644, 107.19673962964612 9.765376756719006, 107.00340887860425 10.108655082055236 M107.00340887860425 10.108655082055236 C106.81411078570608 10.39946778640216, 106.6248126928079 10.690280490749085, 106.32148396464065 11.156274872382301 M107.00340887860425 10.108655082055236 C106.75508151877385 10.490152591987659, 106.50675415894345 10.871650101920084, 106.32148396464065 11.156274872382301 M106.32148396464065 11.156274872382301 C106.12405952739728 11.420805632552176, 105.92663509015392 11.68533639272205, 105.57383890812659 12.158051136245302 M106.32148396464065 11.156274872382301 C106.10287323147827 11.449193338972396, 105.88426249831588 11.742111805562493, 105.57383890812659 12.158051136245302 M105.57383890812659 12.158051136245302 C105.35376879165605 12.416558017395964, 105.13369867518551 12.675064898546626, 104.76354594296866 13.10986736009567 M105.57383890812659 12.158051136245302 C105.26606463781022 12.519580307011005, 104.95829036749386 12.881109477776706, 104.76354594296866 13.10986736009567 M104.76354594296866 13.10986736009567 C104.53195613180989 13.3490028539942, 104.30036632065114 13.58813834789273, 103.89393473676799 14.007812326905684 M104.76354594296866 13.10986736009567 C104.52417992966348 13.357032421148451, 104.28481391635829 13.604197482201233, 103.89393473676799 14.007812326905684 M103.89393473676799 14.007812326905684 C103.52994873890081 14.33837477962689, 103.16596274103364 14.668937232348094, 102.9685787085019 14.848196188198111 M103.89393473676799 14.007812326905684 C103.60870037982616 14.266854622992723, 103.32346602288435 14.525896919079761, 102.9685787085019 14.848196188198111 M102.9685787085019 14.848196188198111 C102.6663229059133 15.089237147397807, 102.3640671033247 15.330278106597502, 101.99128034457871 15.627565626425152 M102.9685787085019 14.848196188198111 C102.65488698194709 15.098356992438143, 102.34119525539228 15.348517796678175, 101.99128034457871 15.627565626425152 M101.99128034457871 15.627565626425152 C101.58235566794494 15.912813778780924, 101.17343099131118 16.198061931136696, 100.9660555736057 16.34271804539089 M101.99128034457871 15.627565626425152 C101.63228049829968 15.87798837833654, 101.27328065202063 16.128411130247926, 100.9660555736057 16.34271804539089 M100.9660555736057 16.34271804539089 C100.64407484406442 16.53790465580761, 100.32209411452314 16.733091266224324, 99.89711726407678 16.990714730406093 M100.9660555736057 16.34271804539089 C100.60188332074411 16.563481405189293, 100.23771106788251 16.784244764987697, 99.89711726407678 16.990714730406093 M99.89711726407678 16.990714730406093 C99.64967588984553 17.119804736848778, 99.40223451561427 17.248894743291462, 98.78885791279238 17.56889292409717 M99.89711726407678 16.990714730406093 C99.65843160716874 17.115236884729562, 99.41974595026068 17.239759039053034, 98.78885791279238 17.56889292409717 M98.78885791279238 17.56889292409717 C98.53374094310712 17.681825638800817, 98.27862397342184 17.794758353504463, 97.6458315951478 18.07487676824742 M98.78885791279238 17.56889292409717 C98.48636003657907 17.702799760616127, 98.18386216036575 17.836706597135084, 97.6458315951478 18.07487676824742 M97.6458315951478 18.07487676824742 C97.31235644220907 18.197598707139395, 96.97888128927033 18.32032064603137, 96.47273525146062 18.506587066708033 M97.6458315951478 18.07487676824742 C97.214711677423 18.23353288319898, 96.78359175969821 18.392188998150537, 96.47273525146062 18.506587066708033 M96.47273525146062 18.506587066708033 C96.17201918600304 18.595838016445004, 95.87130312054545 18.68508896618198, 95.27438938623541 18.86224982926107 M96.47273525146062 18.506587066708033 C96.09204420522343 18.619574170943153, 95.71135315898623 18.732561275178274, 95.27438938623541 18.86224982926107 M95.27438938623541 18.86224982926107 C94.90434994355115 18.94670891732072, 94.53431050086688 19.031168005380373, 94.05571825967677 19.140403561325773 M95.27438938623541 18.86224982926107 C94.88606242584129 18.95088292390079, 94.49773546544718 19.03951601854051, 94.05571825967677 19.140403561325773 M94.05571825967677 19.140403561325773 C93.64054525989101 19.20752551221643, 93.22537226010527 19.274647463107094, 92.82172965284788 19.3399052695533 M94.05571825967677 19.140403561325773 C93.62742808949187 19.20964619460139, 93.19913791930699 19.278888827877008, 92.82172965284788 19.3399052695533 M92.82172965284788 19.3399052695533 C92.37809604552979 19.3827020701038, 91.9344624382117 19.425498870654305, 91.5774942896239 19.45993515863156 M92.82172965284788 19.3399052695533 C92.45234190768139 19.37553966107575, 92.0829541625149 19.411174052598202, 91.5774942896239 19.45993515863156 M91.5774942896239 19.45993515863156 C91.21944229094089 19.471417189323386, 90.86139029225788 19.482899220015213, 90.328125 19.5 M91.5774942896239 19.45993515863156 C91.2347007163128 19.47092788132043, 90.89190714300169 19.481920604009307, 90.328125 19.5 M90.328125 19.5 C90.328125 19.5, 90.328125 19.5, 90.328125 19.5 M90.328125 19.5 C90.328125 19.5, 90.328125 19.5, 90.328125 19.5 M90.328125 19.5 C20.87005549398252 19.5, -48.58801401203496 19.5, -90.328125 19.5 M90.328125 19.5 C51.03702420431514 19.5, 11.745923408630276 19.5, -90.328125 19.5 M-90.328125 19.5 C-90.80379049159046 19.484746333511406, -91.27945598318092 19.469492667022813, -91.5774942896239 19.45993515863156 M-90.328125 19.5 C-90.66366070603799 19.489240022987993, -90.99919641207599 19.47848004597599, -91.5774942896239 19.45993515863156 M-91.5774942896239 19.45993515863156 C-91.96687244902374 19.422372315890005, -92.35625060842358 19.384809473148454, -92.82172965284786 19.3399052695533 M-91.5774942896239 19.45993515863156 C-91.86266810679483 19.432424783460775, -92.14784192396576 19.404914408289986, -92.82172965284786 19.3399052695533 M-92.82172965284786 19.3399052695533 C-93.07603305923567 19.29879146696089, -93.33033646562347 19.25767766436848, -94.05571825967675 19.140403561325773 M-92.82172965284786 19.3399052695533 C-93.10799649817467 19.293623866033403, -93.39426334350146 19.247342462513508, -94.05571825967675 19.140403561325773 M-94.05571825967675 19.140403561325773 C-94.3574622614022 19.071532461995567, -94.65920626312767 19.00266136266536, -95.27438938623538 18.862249829261074 M-94.05571825967675 19.140403561325773 C-94.41914927090198 19.057452804622603, -94.78258028212721 18.97450204791943, -95.27438938623538 18.862249829261074 M-95.27438938623538 18.862249829261074 C-95.54665828459802 18.781441849395655, -95.81892718296068 18.700633869530233, -96.47273525146059 18.506587066708043 M-95.27438938623538 18.862249829261074 C-95.54895718546723 18.78075954768485, -95.82352498469909 18.699269266108626, -96.47273525146059 18.506587066708043 M-96.47273525146059 18.506587066708043 C-96.74519467921729 18.406319478706237, -97.01765410697399 18.306051890704428, -97.6458315951478 18.074876768247425 M-96.47273525146059 18.506587066708043 C-96.79955395860478 18.386314761399973, -97.12637266574896 18.266042456091903, -97.6458315951478 18.074876768247425 M-97.6458315951478 18.074876768247425 C-97.95652266097639 17.93734304972812, -98.26721372680497 17.799809331208813, -98.78885791279238 17.568892924097174 M-97.6458315951478 18.074876768247425 C-98.06119248253394 17.89100882464453, -98.47655336992007 17.70714088104164, -98.78885791279238 17.568892924097174 M-98.78885791279238 17.568892924097174 C-99.13015918386652 17.390836269591688, -99.47146045494068 17.212779615086205, -99.89711726407678 16.990714730406097 M-98.78885791279238 17.568892924097174 C-99.01873607324087 17.448965635035186, -99.24861423368937 17.3290383459732, -99.89711726407678 16.990714730406097 M-99.89711726407678 16.990714730406097 C-100.25370787162669 16.77454740855033, -100.61029847917659 16.558380086694566, -100.96605557360569 16.3427180453909 M-99.89711726407678 16.990714730406097 C-100.23415662256372 16.7863994906282, -100.57119598105065 16.582084250850297, -100.96605557360569 16.3427180453909 M-100.96605557360569 16.3427180453909 C-101.26231306516853 16.13606164405677, -101.55857055673138 15.929405242722641, -101.99128034457871 15.627565626425156 M-100.96605557360569 16.3427180453909 C-101.31600802909162 16.098606361641554, -101.66596048457754 15.854494677892209, -101.99128034457871 15.627565626425156 M-101.99128034457871 15.627565626425156 C-102.30297157988723 15.379000160718725, -102.61466281519576 15.130434695012294, -102.96857870850187 14.848196188198125 M-101.99128034457871 15.627565626425156 C-102.27244327645606 15.403345670312818, -102.55360620833339 15.179125714200483, -102.96857870850187 14.848196188198125 M-102.96857870850187 14.848196188198125 C-103.22736456729831 14.61317371833781, -103.48615042609475 14.378151248477495, -103.89393473676797 14.007812326905697 M-102.96857870850187 14.848196188198125 C-103.17946860750413 14.656671561765226, -103.3903585065064 14.465146935332326, -103.89393473676797 14.007812326905697 M-103.89393473676797 14.007812326905697 C-104.19956081186314 13.692228312002523, -104.5051868869583 13.37664429709935, -104.76354594296865 13.109867360095677 M-103.89393473676797 14.007812326905697 C-104.1661434237187 13.726734508880254, -104.4383521106694 13.445656690854811, -104.76354594296865 13.109867360095677 M-104.76354594296865 13.109867360095677 C-105.03999285164275 12.785137090892361, -105.31643976031684 12.460406821689045, -105.57383890812658 12.158051136245307 M-104.76354594296865 13.109867360095677 C-105.05641692173026 12.765844443611494, -105.34928790049189 12.42182152712731, -105.57383890812658 12.158051136245307 M-105.57383890812658 12.158051136245307 C-105.83741028176055 11.804889507421878, -106.10098165539455 11.451727878598449, -106.32148396464063 11.156274872382316 M-105.57383890812658 12.158051136245307 C-105.85038557008075 11.787503803145905, -106.12693223203493 11.416956470046504, -106.32148396464063 11.156274872382316 M-106.32148396464063 11.156274872382316 C-106.57427784840841 10.76791558225247, -106.8270717321762 10.379556292122624, -107.00340887860425 10.108655082055249 M-106.32148396464063 11.156274872382316 C-106.50831412919388 10.869253568704764, -106.69514429374712 10.582232265027212, -107.00340887860425 10.108655082055249 M-107.00340887860425 10.108655082055249 C-107.24730518364125 9.675592495283109, -107.49120148867824 9.242529908510967, -107.6168114742735 9.019496659696289 M-107.00340887860425 10.108655082055249 C-107.22635162666643 9.712797657469602, -107.44929437472862 9.316940232883956, -107.6168114742735 9.019496659696289 M-107.6168114742735 9.019496659696289 C-107.77144779212016 8.69839103700056, -107.92608410996681 8.377285414304833, -108.15917114880834 7.893275190886686 M-107.6168114742735 9.019496659696289 C-107.81514311793778 8.60765675801005, -108.01347476160207 8.195816856323813, -108.15917114880834 7.893275190886686 M-108.15917114880834 7.893275190886686 C-108.3275184550514 7.477454089692586, -108.49586576129445 7.061632988498486, -108.62825922997033 6.73461856121551 M-108.15917114880834 7.893275190886686 C-108.3074855528066 7.526935745547081, -108.45579995680484 7.160596300207476, -108.62825922997033 6.73461856121551 M-108.62825922997033 6.73461856121551 C-108.71569421846398 6.471278306746208, -108.80312920695762 6.207938052276907, -109.02214813421489 5.5482879393051325 M-108.62825922997033 6.73461856121551 C-108.7802172411902 6.276945242642399, -108.93217525241008 5.819271924069288, -109.02214813421489 5.5482879393051325 M-109.02214813421489 5.5482879393051325 C-109.11815533301542 5.182170880495529, -109.21416253181596 4.816053821685926, -109.33921928754556 4.339158212148136 M-109.02214813421489 5.5482879393051325 C-109.14379154160126 5.084408906354633, -109.26543494898763 4.620529873404133, -109.33921928754556 4.339158212148136 M-109.33921928754556 4.339158212148136 C-109.4317075050486 3.864250762661695, -109.52419572255165 3.389343313175254, -109.57816977658177 3.112197953150904 M-109.33921928754556 4.339158212148136 C-109.41411052761275 3.9546075226722786, -109.48900176767995 3.5700568331964213, -109.57816977658177 3.112197953150904 M-109.57816977658177 3.112197953150904 C-109.61410124925716 2.8335205465524247, -109.65003272193255 2.5548431399539453, -109.73801770250937 1.872449005199809 M-109.57816977658177 3.112197953150904 C-109.62716892980104 2.73217019675953, -109.6761680830203 2.3521424403681555, -109.73801770250937 1.872449005199809 M-109.73801770250937 1.872449005199809 C-109.76733347997663 1.4158321078775615, -109.79664925744389 0.959215210555314, -109.81810621591342 0.6250057626472781 M-109.73801770250937 1.872449005199809 C-109.76135010008562 1.509028079377288, -109.78468249766188 1.1456071535547667, -109.81810621591342 0.6250057626472781 M-109.81810621591342 0.6250057626472781 C-109.81810621591342 0.20418201123880508, -109.81810621591342 -0.21664174016966797, -109.81810621591342 -0.6250057626472687 M-109.81810621591342 0.6250057626472781 C-109.81810621591342 0.2550068196829117, -109.81810621591342 -0.1149921232814547, -109.81810621591342 -0.6250057626472687 M-109.81810621591342 -0.6250057626472687 C-109.78629880852455 -1.1204318072059163, -109.7544914011357 -1.615857851764564, -109.73801770250937 -1.8724490051997822 M-109.81810621591342 -0.6250057626472687 C-109.78953378849089 -1.0700443830015791, -109.76096136106834 -1.5150830033558897, -109.73801770250937 -1.8724490051997822 M-109.73801770250937 -1.8724490051997822 C-109.69031943408041 -2.242387356046279, -109.64262116565146 -2.6123257068927757, -109.57816977658177 -3.112197953150895 M-109.73801770250937 -1.8724490051997822 C-109.68116762839115 -2.313366953743744, -109.62431755427293 -2.7542849022877056, -109.57816977658177 -3.112197953150895 M-109.57816977658177 -3.112197953150895 C-109.49603688542015 -3.5339329904731396, -109.41390399425853 -3.9556680277953844, -109.33921928754556 -4.339158212148126 M-109.57816977658177 -3.112197953150895 C-109.50795421423551 -3.4727400257346224, -109.43773865188923 -3.8332820983183495, -109.33921928754556 -4.339158212148126 M-109.33921928754556 -4.339158212148126 C-109.25839565542495 -4.647373750607791, -109.17757202330432 -4.955589289067455, -109.02214813421489 -5.548287939305123 M-109.33921928754556 -4.339158212148126 C-109.24859934124024 -4.684731342343499, -109.15797939493491 -5.030304472538871, -109.02214813421489 -5.548287939305123 M-109.02214813421489 -5.548287939305123 C-108.87755253052131 -5.983786859449369, -108.73295692682773 -6.419285779593615, -108.62825922997033 -6.734618561215485 M-109.02214813421489 -5.548287939305123 C-108.90611823529753 -5.897751507990382, -108.79008833638017 -6.247215076675641, -108.62825922997033 -6.734618561215485 M-108.62825922997033 -6.734618561215485 C-108.5189219155065 -7.004683841834312, -108.40958460104267 -7.274749122453138, -108.15917114880834 -7.893275190886676 M-108.62825922997033 -6.734618561215485 C-108.51640317057652 -7.010905190507959, -108.40454711118272 -7.287191819800434, -108.15917114880834 -7.893275190886676 M-108.15917114880834 -7.893275190886676 C-108.03598764801004 -8.149068365999057, -107.91280414721172 -8.404861541111435, -107.6168114742735 -9.019496659696282 M-108.15917114880834 -7.893275190886676 C-108.044477329492 -8.13143936075167, -107.92978351017565 -8.369603530616663, -107.6168114742735 -9.019496659696282 M-107.6168114742735 -9.019496659696282 C-107.4106376239881 -9.38557920824422, -107.2044637737027 -9.751661756792158, -107.00340887860425 -10.108655082055243 M-107.6168114742735 -9.019496659696282 C-107.42250548099095 -9.364506626384836, -107.22819948770838 -9.709516593073392, -107.00340887860425 -10.108655082055243 M-107.00340887860425 -10.108655082055243 C-106.73321420405296 -10.52374665959513, -106.46301952950168 -10.938838237135016, -106.32148396464063 -11.156274872382308 M-107.00340887860425 -10.108655082055243 C-106.79548881755386 -10.42807613018257, -106.58756875650347 -10.747497178309896, -106.32148396464063 -11.156274872382308 M-106.32148396464063 -11.156274872382308 C-106.05480727584118 -11.51359734062743, -105.78813058704175 -11.87091980887255, -105.57383890812659 -12.158051136245302 M-106.32148396464063 -11.156274872382308 C-106.04957362529078 -11.520609955569604, -105.77766328594093 -11.884945038756902, -105.57383890812659 -12.158051136245302 M-105.57383890812659 -12.158051136245302 C-105.381764695386 -12.383672435862715, -105.18969048264542 -12.609293735480131, -104.76354594296866 -13.10986736009567 M-105.57383890812659 -12.158051136245302 C-105.39751477627493 -12.36517149464558, -105.22119064442329 -12.572291853045858, -104.76354594296866 -13.10986736009567 M-104.76354594296866 -13.10986736009567 C-104.48897105419721 -13.3933884757698, -104.21439616542577 -13.67690959144393, -103.89393473676799 -14.007812326905677 M-104.76354594296866 -13.10986736009567 C-104.48998612028366 -13.392340336697067, -104.21642629759866 -13.674813313298463, -103.89393473676799 -14.007812326905677 M-103.89393473676799 -14.007812326905677 C-103.65509511390157 -14.22472015304284, -103.41625549103513 -14.441627979180002, -102.9685787085019 -14.848196188198107 M-103.89393473676799 -14.007812326905677 C-103.69686613695777 -14.186784815103895, -103.49979753714756 -14.365757303302113, -102.9685787085019 -14.848196188198107 M-102.9685787085019 -14.848196188198107 C-102.62002122517255 -15.12616150564908, -102.2714637418432 -15.40412682310005, -101.99128034457871 -15.627565626425149 M-102.9685787085019 -14.848196188198107 C-102.5936770519994 -15.147170282706766, -102.21877539549693 -15.446144377215422, -101.99128034457871 -15.627565626425149 M-101.99128034457871 -15.627565626425149 C-101.76889124496688 -15.782694635245404, -101.54650214535505 -15.93782364406566, -100.96605557360571 -16.342718045390885 M-101.99128034457871 -15.627565626425149 C-101.6451690982208 -15.868997848970054, -101.2990578518629 -16.11043007151496, -100.96605557360571 -16.342718045390885 M-100.96605557360571 -16.342718045390885 C-100.74120630706891 -16.479022992126456, -100.5163570405321 -16.615327938862027, -99.89711726407678 -16.99071473040609 M-100.96605557360571 -16.342718045390885 C-100.57735532366213 -16.578350421162895, -100.18865507371856 -16.81398279693491, -99.89711726407678 -16.99071473040609 M-99.89711726407678 -16.99071473040609 C-99.64127979636991 -17.124184973437043, -99.38544232866306 -17.257655216468, -98.7888579127924 -17.56889292409717 M-99.89711726407678 -16.99071473040609 C-99.5795155271352 -17.156407353134895, -99.26191379019362 -17.3220999758637, -98.7888579127924 -17.56889292409717 M-98.7888579127924 -17.56889292409717 C-98.4889114644059 -17.701670319202613, -98.18896501601941 -17.83444771430805, -97.64583159514781 -18.07487676824742 M-98.7888579127924 -17.56889292409717 C-98.34902359098267 -17.763594531140747, -97.90918926917296 -17.95829613818432, -97.64583159514781 -18.07487676824742 M-97.64583159514781 -18.07487676824742 C-97.1799776663954 -18.24631532033482, -96.71412373764298 -18.417753872422217, -96.47273525146062 -18.506587066708033 M-97.64583159514781 -18.07487676824742 C-97.26955987941288 -18.213348237855485, -96.89328816367795 -18.35181970746355, -96.47273525146062 -18.506587066708033 M-96.47273525146062 -18.506587066708033 C-96.18271684612681 -18.59266300707343, -95.89269844079301 -18.67873894743883, -95.27438938623541 -18.862249829261067 M-96.47273525146062 -18.506587066708033 C-96.140795852139 -18.60510493804123, -95.80885645281735 -18.703622809374426, -95.27438938623541 -18.862249829261067 M-95.27438938623541 -18.862249829261067 C-94.89150575329067 -18.949640519931496, -94.50862212034595 -19.037031210601928, -94.05571825967677 -19.140403561325773 M-95.27438938623541 -18.862249829261067 C-94.97449668156523 -18.93069838211925, -94.67460397689506 -18.99914693497743, -94.05571825967677 -19.140403561325773 M-94.05571825967677 -19.140403561325773 C-93.6875498473916 -19.19992617503536, -93.31938143510642 -19.259448788744947, -92.82172965284788 -19.3399052695533 M-94.05571825967677 -19.140403561325773 C-93.73682238225257 -19.19196017371325, -93.41792650482837 -19.243516786100734, -92.82172965284788 -19.3399052695533 M-92.82172965284788 -19.3399052695533 C-92.52063238831089 -19.368951760540742, -92.2195351237739 -19.397998251528183, -91.5774942896239 -19.45993515863156 M-92.82172965284788 -19.3399052695533 C-92.42641575681623 -19.378040725668953, -92.03110186078457 -19.41617618178461, -91.5774942896239 -19.45993515863156 M-91.5774942896239 -19.45993515863156 C-91.23198100408837 -19.47101509719787, -90.88646771855284 -19.482095035764182, -90.328125 -19.5 M-91.5774942896239 -19.45993515863156 C-91.21174605283922 -19.47166399269949, -90.84599781605453 -19.483392826767417, -90.328125 -19.5 M-90.328125 -19.5 C-90.328125 -19.5, -90.328125 -19.5, -90.328125 -19.5 M-90.328125 -19.5 C-90.328125 -19.5, -90.328125 -19.5, -90.328125 -19.5" stroke="#333" stroke-width="2" fill="none" stroke-dasharray="0 0" style="fill:#f9d0c4 !important;stroke:#333 !important;stroke-width:2px !important"/></g><g class="label" style="" transform="translate(-97.453125, -12)"><rect/><foreignObject width="194.90625" height="24"><div xmlns="http://www.w3.org/1999/xhtml" style="display: table-cell; white-space: nowrap; line-height: 1.5; max-width: 200px; text-align: center;"><span class="nodeLabel"><p>Start Daily Boxplot Analysis</p></span></div></foreignObject></g></g><g class="node default input" id="my-svg-flowchart-In_K-1" data-look="classic" transform="translate(634.1328125, 116.5)"><polygon points="-19.5,0 154.40625,0 173.90625,-39 0,-39" class="label-container" transform="translate(-77.203125,19.5)" style="fill:#ffd700 !important;stroke:#333 !important;stroke-width:2px !important"/><g class="label" style="" transform="translate(-69.703125, -12)"><rect/><foreignObject width="139.40625" height="24"><div xmlns="http://www.w3.org/1999/xhtml" style="display: table-cell; white-space: nowrap; line-height: 1.5; max-width: 200px; text-align: center;"><span class="nodeLabel"><p>Cleaned Kitchen DF</p></span></div></foreignObject></g></g><g class="node default input" id="my-svg-flowchart-In_H-2" data-look="classic" transform="translate(907, 116.5)"><polygon points="-19.5,0 128.96875,0 148.46875,-39 0,-39" class="label-container" transform="translate(-64.484375,19.5)" style="fill:#ffd700 !important;stroke:#333 !important;stroke-width:2px !important"/><g class="label" style="" transform="translate(-56.984375, -12)"><rect/><foreignObject width="113.96875" height="24"><div xmlns="http://www.w3.org/1999/xhtml" style="display: table-cell; white-space: nowrap; line-height: 1.5; max-width: 200px; text-align: center;"><span class="nodeLabel"><p>Cleaned Hall DF</p></span></div></foreignObject></g></g><g class="node default input" id="my-svg-flowchart-In_B-3" data-look="classic" transform="translate(1182.2734375, 116.5)"><polygon points="-19.5,0 164.03125,0 183.53125,-39 0,-39" class="label-container" transform="translate(-82.015625,19.5)" style="fill:#ffd700 !important;stroke:#333 !important;stroke-width:2px !important"/><g class="label" style="" transform="translate(-74.515625, -12)"><rect/><foreignObject width="149.03125" height="24"><div xmlns="http://www.w3.org/1999/xhtml" style="display: table-cell; white-space: nowrap; line-height: 1.5; max-width: 200px; text-align: center;"><span class="nodeLabel"><p>Cleaned Bedroom DF</p></span></div></foreignObject></g></g><g class="node default process" id="my-svg-flowchart-Add_Room_K-8" data-look="classic" transform="translate(1112.2265625, 250)"><rect class="basic label-container" style="fill:#bbf !important;stroke:#333 !important;stroke-width:2px !important" x="-99.2265625" y="-27" width="198.453125" height="54"/><g class="label" style="" transform="translate(-69.2265625, -12)"><rect/><foreignObject width="138.453125" height="24"><div xmlns="http://www.w3.org/1999/xhtml" style="display: table-cell; white-space: nowrap; line-height: 1.5; max-width: 200px; text-align: center;"><span class="nodeLabel"><p>Add Room='Kitchen'</p></span></div></foreignObject></g></g><g class="node default process" id="my-svg-flowchart-Add_Room_H-9" data-look="classic" transform="translate(1347.9609375, 250)"><rect class="basic label-container" style="fill:#bbf !important;stroke:#333 !important;stroke-width:2px !important" x="-86.5078125" y="-27" width="173.015625" height="54"/><g class="label" style="" transform="translate(-56.5078125, -12)"><rect/><foreignObject width="113.015625" height="24"><div xmlns="http://www.w3.org/1999/xhtml" style="display: table-cell; white-space: nowrap; line-height: 1.5; max-width: 200px; text-align: center;"><span class="nodeLabel"><p>Add Room='Hall'</p></span></div></foreignObject></g></g><g class="node default process" id="my-svg-flowchart-Add_Room_B-10" data-look="classic" transform="translate(1588.5078125, 250)"><rect class="basic label-container" style="fill:#bbf !important;stroke:#333 !important;stroke-width:2px !important" x="-104.0390625" y="-27" width="208.078125" height="54"/><g class="label" style="" transform="translate(-74.0390625, -12)"><rect/><foreignObject width="148.078125" height="24"><div xmlns="http://www.w3.org/1999/xhtml" style="display: table-cell; white-space: nowrap; line-height: 1.5; max-width: 200px; text-align: center;"><span class="nodeLabel"><p>Add Room='Bedroom'</p></span></div></foreignObject></g></g><g class="node default process" id="my-svg-flowchart-Concat_Rooms-11" data-look="classic" transform="translate(1347.9609375, 378)"><rect class="basic label-container" style="fill:#bbf !important;stroke:#333 !important;stroke-width:2px !important" x="-130" y="-39" width="260" height="78"/><g class="label" style="" transform="translate(-100, -24)"><rect/><foreignObject width="200" height="48"><div xmlns="http://www.w3.org/1999/xhtml" style="display: table; white-space: break-spaces; line-height: 1.5; max-width: 200px; text-align: center; width: 200px;"><span class="nodeLabel"><p>Concat &amp; Plot Overall Boxplot</p></span></div></foreignObject></g></g><g class="node default output" id="my-svg-flowchart-Save_Overall-12" data-look="classic" transform="translate(1347.9609375, 494)"><polygon points="-19.5,0 144.140625,0 163.640625,-39 0,-39" class="label-container" transform="translate(-72.0703125,19.5)" style="fill:#dfd !important;stroke:#333 !important;stroke-width:2px !important"/><g class="label" style="" transform="translate(-64.5703125, -12)"><rect/><foreignObject width="129.140625" height="24"><div xmlns="http://www.w3.org/1999/xhtml" style="display: table-cell; white-space: nowrap; line-height: 1.5; max-width: 200px; text-align: center;"><span class="nodeLabel"><p>Save: Boxplot.png</p></span></div></foreignObject></g></g><g class="node default process" id="my-svg-flowchart-Extract_Day_K-24" data-look="classic" transform="translate(173, 250)"><rect class="basic label-container" style="fill:#bbf !important;stroke:#333 !important;stroke-width:2px !important" x="-130" y="-39" width="260" height="78"/><g class="label" style="" transform="translate(-100, -24)"><rect/><foreignObject width="200" height="48"><div xmlns="http://www.w3.org/1999/xhtml" style="display: table; white-space: break-spaces; line-height: 1.5; max-width: 200px; text-align: center; width: 200px;"><span class="nodeLabel"><p>Extract Day from DateTime (K)</p></span></div></foreignObject></g></g><g class="node default process" id="my-svg-flowchart-Extract_Day_H-25" data-look="classic" transform="translate(483, 250)"><rect class="basic label-container" style="fill:#bbf !important;stroke:#333 !important;stroke-width:2px !important" x="-130" y="-39" width="260" height="78"/><g class="label" style="" transform="translate(-100, -24)"><rect/><foreignObject width="200" height="48"><div xmlns="http://www.w3.org/1999/xhtml" style="display: table; white-space: break-spaces; line-height: 1.5; max-width: 200px; text-align: center; width: 200px;"><span class="nodeLabel"><p>Extract Day from DateTime (H)</p></span></div></foreignObject></g></g><g class="node default process" id="my-svg-flowchart-Extract_Day_B-26" data-look="classic" transform="translate(793, 250)"><rect class="basic label-container" style="fill:#bbf !important;stroke:#333 !important;stroke-width:2px !important" x="-130" y="-39" width="260" height="78"/><g class="label" style="" transform="translate(-100, -24)"><rect/><foreignObject width="200" height="48"><div xmlns="http://www.w3.org/1999/xhtml" style="display: table; white-space: break-spaces; line-height: 1.5; max-width: 200px; text-align: center; width: 200px;"><span class="nodeLabel"><p>Extract Day from DateTime (B)</p></span></div></foreignObject></g></g><g class="node default process" id="my-svg-flowchart-Iterate_Rooms-27" data-look="classic" transform="translate(483, 378)"><rect class="basic label-container" style="fill:#bbf !important;stroke:#333 !important;stroke-width:2px !important" x="-130" y="-39" width="260" height="78"/><g class="label" style="" transform="translate(-100, -24)"><rect/><foreignObject width="200" height="48"><div xmlns="http://www.w3.org/1999/xhtml" style="display: table; white-space: break-spaces; line-height: 1.5; max-width: 200px; text-align: center; width: 200px;"><span class="nodeLabel"><p>Iterate over Rooms (K, H, B)</p></span></div></foreignObject></g></g><g class="node default process" id="my-svg-flowchart-Iterate_Days-28" data-look="classic" transform="translate(483, 494)"><rect class="basic label-container" style="fill:#bbf !important;stroke:#333 !important;stroke-width:2px !important" x="-91.40625" y="-27" width="182.8125" height="54"/><g class="label" style="" transform="translate(-61.40625, -12)"><rect/><foreignObject width="122.8125" height="24"><div xmlns="http://www.w3.org/1999/xhtml" style="display: table-cell; white-space: nowrap; line-height: 1.5; max-width: 200px; text-align: center;"><span class="nodeLabel"><p>Iterate over Days</p></span></div></foreignObject></g></g><g class="node default process" id="my-svg-flowchart-Calc_Stats-29" data-look="classic" transform="translate(483, 635)"><rect class="basic label-container" style="fill:#bbf !important;stroke:#333 !important;stroke-width:2px !important" x="-130" y="-39" width="260" height="78"/><g class="label" style="" transform="translate(-100, -24)"><rect/><foreignObject width="200" height="48"><div xmlns="http://www.w3.org/1999/xhtml" style="display: table; white-space: break-spaces; line-height: 1.5; max-width: 200px; text-align: center; width: 200px;"><span class="nodeLabel"><p>Calculate mean, std, cv, max per day</p></span></div></foreignObject></g></g><g class="node default process" id="my-svg-flowchart-Plot_Daily-30" data-look="classic" transform="translate(483, 751)"><rect class="basic label-container" style="fill:#bbf !important;stroke:#333 !important;stroke-width:2px !important" x="-126.6328125" y="-27" width="253.265625" height="54"/><g class="label" style="" transform="translate(-96.6328125, -12)"><rect/><foreignObject width="193.265625" height="24"><div xmlns="http://www.w3.org/1999/xhtml" style="display: table-cell; white-space: nowrap; line-height: 1.5; max-width: 200px; text-align: center;"><span class="nodeLabel"><p>Plot Boxplot for each room</p></span></div></foreignObject></g></g><g class="node default process" id="my-svg-flowchart-Color_Norm-31" data-look="classic" transform="translate(483, 867)"><rect class="basic label-container" style="fill:#bbf !important;stroke:#333 !important;stroke-width:2px !important" x="-130" y="-39" width="260" height="78"/><g class="label" style="" transform="translate(-100, -24)"><rect/><foreignObject width="200" height="48"><div xmlns="http://www.w3.org/1999/xhtml" style="display: table; white-space: break-spaces; line-height: 1.5; max-width: 200px; text-align: center; width: 200px;"><span class="nodeLabel"><p>Apply Color Gradient based on Daily Mean</p></span></div></foreignObject></g></g><g class="node default output" id="my-svg-flowchart-Save_Daily-32" data-look="classic" transform="translate(483, 987.5)"><polygon points="-31.5,0 215,0 246.5,-63 0,-63" class="label-container" transform="translate(-107.5,31.5)" style="fill:#dfd !important;stroke:#333 !important;stroke-width:2px !important"/><g class="label" style="" transform="translate(-100, -24)"><rect/><foreignObject width="200" height="48"><div xmlns="http://www.w3.org/1999/xhtml" style="display: table; white-space: break-spaces; line-height: 1.5; max-width: 200px; text-align: center; width: 200px;"><span class="nodeLabel"><p>Save: Daily_Boxplot_Analysis.png</p></span></div></foreignObject></g></g></g></g></g><defs><filter id="my-svg-drop-shadow" height="130%" width="130%"><feDropShadow dx="4" dy="4" stdDeviation="0" flood-opacity="0.06" flood-color="#000000"/></filter></defs><defs><filter id="my-svg-drop-shadow-small" height="150%" width="150%"><feDropShadow dx="2" dy="2" stdDeviation="0" flood-opacity="0.06" flood-color="#000000"/></filter></defs></svg>